{"title":"Naan Than Bala (2014) - TC Rip XviD MP3 700MB - Shammu","uid":10356930,"size":746017512,"categoryP":"video","categoryS":"movies","magnet":"?xt=urn:btih:50253f5616f606ebc8d95f90a8c82671f93665e4&amp;dn=Naan+Than+Bala+%282014%29+-+TC+Rip+XviD+MP3+700MB+-+Shammu&amp;tr=udp%3A%2F%2Ftracker.openbittorrent.com%3A80&amp;tr=udp%3A%2F%2Fopen.demonii.com%3A1337&amp;tr=udp%3A%2F%2Ftracker.coppersurfer.tk%3A6969&amp;tr=udp%3A%2F%2Fexodus.desync.com%3A6969","seeders":1,"leechers":0,"uploader":"TeamXDN","files":-1,"time":1402753730,"description":"Naan Than Bala (2014) - TC Rip XviD MP3 700MB - Shammu\n\nFormat                                   : AVI\nFormat/Info                              : Audio Video Interleave\nFile size                                : 711 MiB\nDuration                                 : 2h 5mn\nOverall bit rate                         : 791 Kbps\n\nVideo\nID                                       : 0\nFormat                                   : MPEG-4 Visual\nFormat profile                           : Advanced Simple@L5\nFormat settings, BVOP                    : 2\nFormat settings, QPel                    : Yes\nFormat settings, GMC                     : No warppoints\nFormat settings, Matrix                  : Default (H.263)\nCodec ID                                 : XVID\nCodec ID/Hint                            : XviD\nDuration                                 : 2h 5mn\nBit rate                                 : 703 Kbps\nWidth                                    : 608 pixels\nHeight                                   : 256 pixels\nDisplay aspect ratio                     : 2.40:1\nFrame rate                               : 29.970 fps\nColor space                              : YUV\nChroma subsampling                       : 4:2:0\nBit depth                                : 8 bits\nScan type                                : Progressive\nCompression mode                         : Lossy\nBits/(Pixel*Frame)                       : 0.151\nStream size                              : 633 MiB (89%)\nWriting library                          : XviD 1.2.1 (UTC 2008-12-04)\n\nAudio\nID                                       : 1\nFormat                                   : MPEG Audio\nFormat version                           : Version 1\nFormat profile                           : Layer 3\nMode                                     : Joint stereo\nMode extension                           : MS Stereo\nCodec ID                                 : 55\nCodec ID/Hint                            : MP3\nDuration                                 : 2h 5mn\nBit rate mode                            : Constant\nBit rate                                 : 80.0 Kbps\nChannel(s)                               : 2 channels\nSampling rate                            : 32.0 KHz\nCompression mode                         : Lossy\nStream size                              : 72.0 MiB (10%)\nAlignment                                : Aligned on interleaves\nInterleave, duration                     : 133 ms (4.00 video frames)\nInterleave, preload duration             : 216 ms\nTitle                                    : Naan Than Bala (2014)\nWriting library                          : LAME3.99r\nEncoding settings                        : -m j -V 4 -q 2 -lowpass 13.5 -b 80","torrent":{"xt":"urn:btih:50253f5616f606ebc8d95f90a8c82671f93665e4","amp;dn":"Naan+Than+Bala+%282014%29+-+TC+Rip+XviD+MP3+700MB+-+Shammu","amp;tr":["udp%3A%2F%2Ftracker.openbittorrent.com%3A80","udp%3A%2F%2Fopen.demonii.com%3A1337","udp%3A%2F%2Ftracker.coppersurfer.tk%3A6969","udp%3A%2F%2Fexodus.desync.com%3A6969"],"infoHash":"50253f5616f606ebc8d95f90a8c82671f93665e4","infoHashBuffer":{"type":"Buffer","data":[80,37,63,86,22,246,6,235,200,217,95,144,168,200,38,113,249,54,101,228]},"announce":[],"urlList":[]}}